<svg width="400" height="250" viewBox="0 0 400 250" xmlns="http://www.w3.org/2000/svg">
  <defs><linearGradient id="tasks-grad" x1="0%" y1="0%" x2="100%" y2="100%"><stop offset="0%" style="stop-color:#96CEB4;stop-opacity:1"/><stop offset="100%" style="stop-color:#B8A9C9;stop-opacity:1"/></linearGradient></defs>
  <rect width="400" height="250" fill="url(#tasks-grad)"/>
  <g transform="translate(150, 70)"><rect x="0" y="0" width="100" height="110" rx="8" fill="rgba(255,255,255,0.95)"/>
  <rect x="15" y="20" width="8" height="8" fill="#96CEB4"/><rect x="30" y="22" width="50" height="4" fill="#2D3436"/>
  <rect x="15" y="40" width="8" height="8" fill="#96CEB4"/><rect x="30" y="42" width="40" height="4" fill="#2D3436"/>
  <rect x="15" y="60" width="8" height="8" fill="#FFEAA7"/><rect x="30" y="62" width="45" height="4" fill="#2D3436"/>
  <circle cx="19" cy="24" r="3" stroke="#96CEB4" stroke-width="2" fill="white"/><path d="M17 24 L18.5 25.5 L21 22.5" stroke="#96CEB4" stroke-width="2" fill="none"/>
  <circle cx="19" cy="44" r="3" stroke="#96CEB4" stroke-width="2" fill="white"/><path d="M17 44 L18.5 45.5 L21 42.5" stroke="#96CEB4" stroke-width="2" fill="none"/></g>
  <text x="200" y="200" text-anchor="middle" fill="white" font-family="Inter, sans-serif" font-size="16" font-weight="600">Task Manager</text>
  <text x="200" y="220" text-anchor="middle" fill="rgba(255,255,255,0.8)" font-family="Inter, sans-serif" font-size="12">Productivity App</text>
</svg>